<svg xmlns="http://www.w3.org/2000/svg" viewBox="0 0 256 256" width="80" height="80"><path d="M25.6 20.48a5.12 5.12 0 00-5.12 5.12v204.8a5.12 5.12 0 005.12 5.12h204.8a5.12 5.12 0 005.12-5.12V25.6a5.12 5.12 0 00-5.12-5.12zm5.12 10.24h194.56v194.56H30.72zm46.08 87.04v17.64h25.6v79.64h20.48V135.4h25.6v-17.64zm111.06.05c-15.947-.063-34.17 4.769-34.17 27.21 0 29.338 39.53 29.345 39.53 42.58 0 1.254.532 10.37-13.42 10.37s-25.58-8.77-25.58-8.77v21.29s60.83 19.675 60.83-24.69c-.005-28.8-39.9-27.36-39.9-41.67 0-5.545 3.94-10.73 14.85-10.73s20.57 6.44 20.57 6.44l.72-18.97s-11.027-3.01-23.43-3.06z" fill="#fff" font-family="none" font-weight="none" font-size="none" text-anchor="none"/></svg>