<svg xmlns="http://www.w3.org/2000/svg" viewBox="0 0 256 256" width="70" height="70"><path d="M164.96 10.56l-4 1.6-14.4 5.6-4 1.6.96 4.16 3.04 15.36c-1.5 1.5-3.1 3.26-4.8 5.12l-15.2-3.36-4.16-.96-1.6 3.84-6.24 14.4-1.6 3.84 3.52 2.4 13.12 8.8c-.16 2.5-.14 5.02 0 7.52l-13.44 8.32-3.68 2.24 1.6 4 5.6 14.4 1.6 4 4.16-.96 15.36-3.04c1.56 1.86 3.28 3.54 5.12 5.12l-3.52 15.36-.96 4.16 4 1.76 14.4 6.08 3.84 1.6 2.4-3.52 8.8-13.12c2.5.16 5.02.14 7.52 0l8.32 13.6 2.24 3.52 4-1.44 18.4-7.36-.96-4.16-3.52-16.8c1.92-1.62 3.66-3.36 5.28-5.28l15.52 4 4.32 1.12 1.6-4 6.24-14.4 1.76-4-3.84-2.4-13.44-8.16c.16-2.5.14-5.02 0-7.52l13.44-8.32 3.68-2.24-1.6-4-5.6-14.4-1.6-4-4.32.96-15.68 3.52c-1.56-1.86-3.28-3.54-5.12-5.12l3.36-15.36.96-4.16-3.84-1.6-14.4-6.24-4-1.6-2.4 3.68-8.16 12.96c-2.36-.24-4.92-.02-7.52.16l-8.32-13.6zm-4.32 12.64l7.52 12.32 1.92 3.04 3.52-.8c3.62-.8 7.04-.36 11.68.16l3.2.32 1.76-2.72 7.36-11.68 6.4 2.72-3.2 13.76-.8 3.36 2.88 1.92a33.76 33.76 0 018 8l1.92 2.88 3.36-.8 14.08-3.2 2.56 6.4-12.32 7.36-2.72 1.76.32 3.2c.48 4.28.48 7.88 0 12.16l-.32 3.2 2.72 1.76 12.16 7.52-2.56 6.08-14.24-3.52-3.52-.8-1.92 2.88a33.761 33.761 0 01-8 8l-2.72 1.92.64 3.36 3.2 15.2-6.4 2.4-7.36-12.16-1.76-2.72-3.2.32c-4.28.48-7.88.48-12.16 0l-3.2-.32-1.6 2.56-7.84 11.84-6.56-2.88 3.04-13.76.8-3.2-2.72-2.08a33.761 33.761 0 01-8-8l-1.92-2.72-3.36.64-13.76 2.88-2.4-6.4 12.16-7.52 2.88-1.76-.48-3.2c-.48-4.28-.48-7.88 0-12.16l.48-3.04-2.72-1.76-11.84-7.84 2.72-6.56 13.92 3.2 3.04.64 1.92-2.4c2.92-3.4 5.92-6.4 8.48-8.96l1.92-1.92-.48-2.56-2.88-13.76zm18.56 28c-14.08 0-25.6 11.52-25.6 25.6 0 14.08 11.52 25.6 25.6 25.6 14.08 0 25.6-11.52 25.6-25.6 0-14.08-11.52-25.6-25.6-25.6zm0 10.24c8.54 0 15.36 6.82 15.36 15.36s-6.82 15.36-15.36 15.36-15.36-6.82-15.36-15.36 6.82-15.36 15.36-15.36zM69.28 102.4l-.64 4.32-2.56 16.64c-2.78.88-5.46 2.16-8 3.52l-17.6-12.8L22.56 132l2.4 3.52 9.76 14.08c-1.38 2.74-2.6 5.48-3.52 8.16l-16.8 3.04-4.16.8v24.96l4.16.8 16.8 3.04c.9 2.8 2.14 5.42 3.52 8L24.64 212l-2.72 3.52 17.92 17.92 3.52-2.4 14.08-9.76c2.74 1.38 5.48 2.6 8.16 3.52l2.56 16.64.64 4.32h25.12l.64-4.16 3.2-16.8c2.78-.88 5.46-2.16 8-3.52l17.6 12.8 17.92-17.92-2.4-3.52-10.24-14.24c1.34-2.7 2.62-5.36 3.52-8l17.28-3.04 4.16-.8v-25.12l-21.6-3.2c-.88-2.76-2-5.46-3.36-8l10.24-14.08 2.4-3.52-2.88-3.04-11.84-12.32-3.04-3.2-3.68 2.56-14.08 10.24c-2.7-1.34-5.36-2.62-8-3.52l-2.56-16.64-.64-4.32zm8.8 10.24h7.68l2.88 18.24 2.88.96c4.6 1.54 8.9 2.98 12.32 5.12l2.88 1.76 2.72-1.92 12.8-9.28 5.76 6.08-9.28 12.96-2.08 2.72 1.92 2.88c2.3 3.68 4.1 7.94 4.96 11.84l.8 3.36 3.36.48 15.68 2.4v7.84l-15.68 2.72-3.04.48-.96 2.88c-1.54 4.6-2.98 8.9-5.12 12.32l-1.92 2.88 2.08 2.72 9.28 12.96-5.76 5.6-12.8-9.28-2.72-1.92-2.88 1.76c-3.68 2.3-7.94 4.1-11.84 4.96l-3.2.8-.64 3.36-2.72 15.2H77.6l-2.88-18.24-2.88-.96c-4.6-1.54-8.9-2.98-12.32-5.12l-2.88-1.76-2.72 1.92-12.96 8.8-5.6-5.6 9.12-12.32 2.24-2.88-1.92-2.88c-2.3-3.68-4.1-7.78-4.96-11.68l-.8-3.36-3.36-.64-15.2-2.72v-8l15.2-2.72 3.04-.64.96-2.72c1.54-4.6 2.98-8.9 5.12-12.32l1.76-2.88-1.92-2.72-8.8-12.96 5.76-5.6 12.8 9.28 2.72 1.92 2.88-1.76c3.68-2.3 7.94-4.1 11.84-4.96l3.36-.8.48-3.36zm3.84 35.84c-14.06 0-25.6 11.54-25.6 25.6 0 14.06 11.54 25.6 25.6 25.6 14.06 0 25.6-11.54 25.6-25.6 0-14.06-11.54-25.6-25.6-25.6zm0 10.24c8.48 0 15.36 6.88 15.36 15.36s-6.88 15.36-15.36 15.36-15.36-6.88-15.36-15.36 6.88-15.36 15.36-15.36z" fill="#fff" font-family="none" font-weight="none" font-size="none" text-anchor="none"/></svg>