<svg xmlns="http://www.w3.org/2000/svg" viewBox="0 0 256 256" width="60" height="60"><path d="M159.58 40.96c-2.4-.06-4.5.86-5.58 3.52-1.84 4.46 2.74 8.82 4.38 11.1 1.14 1.58 2.62 3.36 3.44 5.14.54 1.18.62 2.36 1.08 3.6 1.14 3.06 2.96 6.54 4.42 9.38.74 1.44 1.56 2.94 2.5 4.22.58.78 1.56 1.14 1.72 2.34-.96 1.36-1.02 3.46-1.56 5.18-2.44 7.7-1.52 17.28 2.02 22.96 1.1 1.76 3.68 5.5 7.2 4.08 3.08-1.26 2.4-5.16 3.28-8.62.2-.76.08-1.34.48-1.86v.16c.92 1.88 1.86 3.76 2.8 5.62 2.1 3.36 5.8 6.86 8.92 9.24 1.62 1.22 2.9 3.34 5 4.06v-.16h-.16c-.4-.64-1.04-.9-1.56-1.4-1.22-1.2-2.58-2.7-3.58-4.08-2.86-3.86-5.38-8.1-7.66-12.5-1.1-2.1-2.06-4.42-2.98-6.56-.36-.84-.36-2.08-1.1-2.52-1.02 1.58-2.5 2.84-3.28 4.7-1.24 2.96-1.42 6.58-1.88 10.32-.28.1-.16.02-.3.16-2.18-.54-2.96-2.78-3.76-4.7-2.04-4.86-2.44-12.7-.62-18.28.46-1.46 2.56-6.02 1.72-7.36-.4-1.34-1.76-2.1-2.5-3.12-.94-1.26-1.86-2.92-2.5-4.38-1.68-3.8-3.26-8.2-5.04-12.04-.84-1.84-2.26-3.68-3.44-5.32-1.3-1.8-2.74-3.12-3.76-5.32-.34-.76-.84-2-.3-2.8.16-.54.4-.76.94-.94.9-.7 3.42.22 4.38.62 2.5 1.04 4.6 2.04 6.72 3.44 1.02.68 2.04 1.98 3.28 2.36h1.4c2.22.5 4.68.14 6.72.78 3.64 1.1 6.9 2.82 9.84 4.68 9.02 5.68 16.4 13.78 21.42 23.44.82 1.56 1.18 3.06 1.9 4.7 1.42 3.32 3.24 6.76 4.68 10 1.42 3.26 2.82 6.52 4.84 9.22 1.06 1.42 5.18 2.2 7.04 2.98 1.3.56 3.46 1.14 4.68 1.88 2.38 1.42 4.66 3.12 6.88 4.7 1.12.78 4.52 2.48 4.7 3.9-5.5-.14-9.7.36-13.28 1.88-1.02.44-2.66.44-2.82 1.72.54.58.64 1.46 1.08 2.18.86 1.38 2.3 3.24 3.6 4.22 1.42 1.06 2.86 2.2 4.38 3.14 2.68 1.62 5.68 2.56 8.28 4.2 1.52.98 3.06 2.2 4.54 3.28.74.56 1.22 1.4 2.18 1.74v-.16c-.5-.64-.62-1.52-1.08-2.18l-2.06-2.06c-1.98-2.62-4.5-4.94-7.18-6.86-2.14-1.54-6.92-3.62-7.8-6.1l-.16-.16c1.5-.16 3.28-.72 4.68-1.1 2.36-.62 4.44-.46 6.86-1.08 1.1-.32 2.2-.64 3.3-.94v-.64c-1.22-1.24-2.1-2.92-3.44-4.06-3.5-2.98-7.32-5.96-11.26-8.44-2.18-1.38-4.88-2.28-7.18-3.44-.78-.4-2.14-.6-2.66-1.26-1.22-1.54-1.88-3.5-2.82-5.3-1.96-3.78-3.88-7.9-5.62-11.88-1.18-2.7-1.96-5.38-3.44-7.82-7.1-11.66-14.74-18.72-26.58-25.64-2.52-1.48-5.54-2.04-8.74-2.8-1.74-.12-3.44-.22-5.18-.32-1.04-.44-2.14-1.72-3.12-2.36-2.46-1.54-7.3-4.22-11.3-4.28zm16.94 16.96c-1.14-.02-1.96.14-2.82.32v.16h.16c.54 1.12 1.52 1.84 2.2 2.8.52 1.1 1.02 2.2 1.54 3.3l.16-.16c.96-.68 1.42-1.78 1.42-3.44-.4-.4-.46-.92-.78-1.4-.46-.66-1.32-1.02-1.88-1.58zM9.56 122.86c-1.54.06-3.22.36-5.04.94-3.04.92-4.54 2.74-4.54 6.44v38.72h10.26v-37.78l14.22 32.3c1.76 4.02 4.16 5.46 8.86 5.46 4.72 0 7.02-1.44 8.78-5.46L56.32 132v36.96h10.24v-38.72c0-3.7-1.48-5.52-4.54-6.44-7.28-2.3-12.18-.32-14.38 4.66l-14.6 32.84-14.12-32.84c-1.6-3.74-4.8-5.78-9.36-5.6zm124.82.02c-4.04 0-16.62.48-16.62 10.24v6.32c0 4.48 3.94 8.14 12.48 9.04.96.06 1.92.14 2.88.14 0 0 9.96-.2 10.24-.14 5.76 0 5.12 4.48 5.12 5.12v5.12c0 .7-.16 5.12-5.18 5.12h-25.54v5.12h25.64c3.36 0 6.62-.7 9.22-1.92 4.32-1.98 6.1-4.66 6.1-8.18v-7.32c0-7.86-9.76-8.18-15.36-8.18h-10.24c-4.02 0-4.64-2.44-5.12-5.12v-5.12c.48-2.04 1.38-4.8 4.94-5.12h25.78v-5.12zm39.6 0c-7.56 1.04-10.22 4.8-10.22 10.24v25.6c0 4.98 2.78 7.98 8.5 9.54 1.92.54 3.66.76 5.3.76l11.4-.06h6.7l5.7 5.12h11.52l-7.92-7.14c3.72-1.54 4.88-3.9 4.88-8.32v-25.5c0-5.44-3.54-9.2-11.1-10.24zm41.06 0v35.62c0 6.18 3.5 9.66 12.76 10.36.86.04 1.74.1 2.6.1H256v-5.12h-23.66c-5.28 0-7.06-2.22-7.06-5.38v-35.58zM180.08 128h13.18c3.48 0 5.82 2.8 6.34 5.12 0 0 .08 23.84.08 25.6 0 1.76-.98 2.56-.98 2.56l-2.78-2.56h-11.6l5.7 5.12h-9.94c-3.56 0-5.56-2.64-6.08-5.12v-25.08c0-2.72 2.08-5.64 6.08-5.64zm-108.4 10.24c.2.2 0 21.82 0 22.24.08 4.48 5.76 8.4 14.66 8.48h16.06v.34c0 .96.7 4.16-5.12 4.78h-25.6v5.12h26.7c4.52-.14 14.32-1.16 14.26-9 0-.14.04-31.96 0-31.96H102.4v25.6c-.16 0-12.68.04-15.2 0-4.94-.08-5.36-2.9-5.28-3.98v-21.62z" fill="#fff" font-family="none" font-weight="none" font-size="none" text-anchor="none"/></svg>