<svg xmlns="http://www.w3.org/2000/svg" viewBox="0 0 256 256" width="80" height="80"><path d="M153.76 15.36a5.18 5.18 0 00-2.44.54c-3.22 1.6-5.28 3.96-7.14 6.02-1.84 2.06-3.22 3.9-3.22 3.9-.06.08-.12.16-.16.24-5.08 7.64-7.58 16.34-7.68 25.1-.06 6.74 1.3 13.52 3.94 19.9 6.46 15.5 19.44 27.48 34.7 33.2h.02c.7.28 1.32.5 1.82.68.08.02.16.04.24.08.1.02.32.1.7.2.58.2 1.56.6 3 .88 4.18.84 8.08 1.28 11.74 1.4 16.2.5 27.42-5.74 34.42-12.56 3.5-3.42 6-6.96 7.76-9.84 1.78-2.88 3.14-5.48 3.16-5.5h.02a5.14 5.14 0 00-1.38-7.06c-2.32-1.58-5.48-1-7.1 1.3-3.96 5.82-8.88 9.16-15.16 10.78-6.28 1.62-14 1.38-22.86-.82-1.2-.3-2.68-.78-4.02-1.28 0 0-.02 0-.04-.02a51.11 51.11 0 01-4.9-2.06l-.02-.02-.04-.02c-3.02-1.5-5.94-3.3-8.6-5.38-7.36-5.72-13.08-15.08-15.52-24.86-2.44-9.78-1.6-19.74 2.94-26.96.98-1.56 1.04-3.52.18-5.14a5.104 5.104 0 00-4.36-2.7zM107.5 25.6c-1.18 0-2.32.42-3.22 1.16-8.2 6.68-16 17.06-16 17.06-.06.06-.1.14-.14.22-15.16 22.04-14.22 51.02-2.68 73.88a91.68 91.68 0 006.48 10.96l.02.02c1.9 2.8 4.2 6.46 7.52 9.52 1.08 1.24 2.2 2.4 3.32 3.5.26.28.54.56.8.82.02.04.04.06.06.06a98.54 98.54 0 003.3 3.1l.02.02.14.14.08.04c.06.08.14.14.22.2 1.2 1.08 2.42 2.1 3.68 3.08.06.06.1.1.16.14 0 0 .28.24.86.66 1.28 1 2.58 1.96 3.86 2.88.16.12.34.24.5.32.12.08.2.14.3.22h.02c.46.32.92.62 1.3.88.12.08.4.28.86.58 1 .66 1.98 1.26 3 1.88.1.06.22.12.32.18 0 0 .16.08.34.16.04.04.04.02.1.06.8.48 1.62.96 2.48 1.4.3.18.66.36.76.42.06.04.12.06.18.1.52.26 1.08.56 1.66.88.5.26.64.28.6.28 1.28.62 2.5 1.18 3.64 1.72.08.02.16.06.26.1.24.1.44.18.7.3 1.02.42 2.08.9 3.2 1.32.06.02.14.06.2.08.22.08.6.22 1.18.44 0 0 .02 0 .02.02.96.34 1.94.66 2.9.98.5.18.94.32 1.32.46h.02c1.06.34 2.64 1 4.78 1.36 0 0 0-.02.02 0 8.08 1.34 15.54 1.88 22.42 1.74 28.14-.62 46.38-13.02 57.08-25.22 10.68-12.2 14.28-24.52 14.28-24.52.72-2.42-.44-4.98-2.72-6.06-2.26-1.08-4.98-.34-6.42 1.74-13.6 19.88-40.04 30.1-68.96 22.48-1.28-.32-2.52-.68-3.74-1.1-.08-.02-.18-.06-.28-.08-.18-.04-.42-.12-.84-.26-.04-.02-.08-.04-.1-.06-.94-.3-1.82-.58-2.62-.9h-.02c-.46-.18-.86-.32-1.2-.46-1.02-.4-1.98-.78-2.8-1.14a.598.598 0 00-.16-.08c-.44-.18-.64-.28-.36-.14-.12-.06-.24-.1-.36-.16a87.09 87.09 0 01-3.44-1.62l-.08-.02c0-.02-.02-.02-.04-.04-.58-.3-1.14-.58-1.72-.9-.02 0-.04-.02-.08-.02-.36-.2-.7-.38-1-.54v.02c-.66-.34-1.34-.76-2.14-1.24a.974.974 0 01-.14-.06c-.24-.14-.32-.18-.36-.22h-.02l-.04-.02c-.98-.6-1.9-1.16-2.62-1.66-.1-.06-.22-.12-.32-.18.08.04-.14-.12-.66-.46-.54-.34-1.1-.7-1.7-1.12h-.02c-.02-.02-.04-.04-.08-.04-1.12-.82-2.28-1.7-3.46-2.6l-.1-.1c-.28-.22-.52-.4-.68-.54a.53.53 0 01-.12-.1c-12.76-10.18-22.8-24.12-27.52-39.7v-.02c-4.74-15.34.14-34.18 8.44-48.52.92-1.58.92-3.54 0-5.14a5.138 5.138 0 00-4.44-2.54zM51.22 40.96c-1.26 0-2.5.46-3.44 1.32-.28.24-.42.5-.7.76-9.94 9.2-17.02 20.4-17.16 20.64-20.6 29.94-17.86 75.88-2.48 106.9v.06c.4.84.8 1.58 1.12 2.16.16.36.34.7.52 1.04.38.86.66 1.22.7 1.28.24.46.48.92.66 1.26.02.04.06.1.08.14.46.74.9 1.56 1.4 2.38 0 .02.02.04.04.06.22.36.5.88.94 1.52.56.92 1.08 1.74 1.46 2.34.02.04.04.06.04.08.2.3.44.7.74 1.12.02.04.04.06.06.08.02.04.02.06.06.12.7 1.06 1.44 2.16 2.26 3.3.08.1.06.06.12.16.06.08.06.08.1.14.02.02.06.08.08.12l.02.02c.04.06.2.26.2.26 0 .02.02.04.04.04.72 1 1.46 2.02 2.24 3.02.3.4.56.74.7.92.04.06.1.12.14.2.66.78 1.3 1.58 1.96 2.4.02.04.04.06.06.08.2.24.46.54.74.88.86 1.04 1.74 2.04 2.64 3.04.08.08.16.18.24.26l-.04-.06c.26.3.72.8 1.18 1.1l-.96-.82c.94 1.04 1.9 2.06 2.86 3.08.02.02.04.02.04.04l1.04 1.04c.68.68 1.4 1.42 2.24 2.22.32.3.64.58.86.82.02.02.02.02.04.02.92.88 1.92 1.82 2.98 2.76.1.06.16.14.24.2v.02c.28.24.44.38.4.34.06.04.1.1.16.14.94.82 1.88 1.62 2.82 2.42.46.36.86.68 1.2.98h.04c.84.7 1.64 1.3 2.4 1.88 0 .02.02.02.02.04.38.28.78.58 1.22.92.02.02.04.02.06.04.9.68 1.8 1.32 2.66 1.94.26.2.56.4.88.62-.02-.02.1.08.06.06.14.1.28.2.4.28.84.56 1.66 1.12 2.52 1.68 0 .02.02.02.02.02.38.24.72.48 1.06.7.02.02.04.04.08.06 1.36.88 2.7 1.7 4.02 2.5.08.06.16.1.24.14.32.18.62.34.9.5l.04.04c1.02.58 2.04 1.18 3.12 1.76l-.1-.06c.72.4 1.36.7 1.88.96.64.36 1.32.74 2.04 1.1.1.06.22.12.34.18.38.14.38.18-.02-.06.14.1.28.16.42.22.06.04.28.14.66.34h.04c1.18.6 2.34 1.14 3.54 1.66.28.14.46.22.4.18.12.06.22.12.32.16 1.34.6 2.7 1.16 4.08 1.72.02 0 .06.02.08.02.08.02.48.2.88.34.08.04.16.06.24.08.04.02.02.02.06.04 1.1.42 2.2.84 3.3 1.22.3.14.56.22.74.3 1.44.48 2.84.94 4.28 1.38.04.02.08.04.14.06.08.02.46.14.88.26.02 0 .04.02.06.02.1.02.08.02.18.06 1.22.38 2.66.92 4.54 1.28h.04c9.88 1.82 19.06 2.64 27.62 2.64 73.4.02 96.94-59.62 96.94-59.62.9-2.38-.08-5.06-2.3-6.3a5.145 5.145 0 00-6.56 1.38c-20.9 27.48-58.38 33.04-94.94 24.64-1.1-.26-2.4-.66-3.9-1.12-.02 0-.06-.02-.08-.02-.26-.08-.54-.16-.68-.22l-.24-.06c-1.28-.4-2.58-.84-3.88-1.28-.02-.02-.06-.02-.1-.04a.716.716 0 01-.22-.08c-.08-.02-.16-.06-.26-.08-1-.36-2.08-.76-3.2-1.2l-.18-.08c-.44-.16-.82-.3-.98-.38-1.2-.48-2.44-1-3.66-1.54-.12-.06-.22-.1-.32-.14.02 0-.24-.1-.4-.16-1.06-.5-2.1-1-3.18-1.52-.08-.02-.14-.06-.22-.1-.06-.02-.24-.1-.6-.3a.974.974 0 00-.14-.06c-.7-.34-1.48-.74-2.28-1.18-.02-.02-.06-.04-.08-.06-.64-.32-1.14-.56-1.5-.78-.04 0-.06-.02-.1-.04-.94-.5-1.92-1.08-2.96-1.66l.4.24c-.68-.44-1.16-.68-1.44-.84l.16.08c-1.3-.78-2.58-1.56-3.8-2.34-.02-.02-.04-.02-.04-.04-.24-.14-.52-.32-.86-.56-.06-.06-.14-.1-.2-.14-.84-.54-1.7-1.14-2.6-1.74l-.06-.04c-.18-.14-.46-.34-.84-.62-.8-.56-1.6-1.14-2.42-1.76h-.04l-.1-.1c-.32-.26-.68-.52-1.04-.8-.8-.62-1.56-1.2-2.24-1.76l-.1-.06c-.4-.34-.76-.64-1.02-.86 0 0-.02 0-.04-.02-.94-.76-1.84-1.56-2.82-2.4l.42.42c-.82-.92-1.2-1.04-1-.9l.28.24c-.98-.88-1.98-1.82-3-2.78l-.06-.04c-.16-.16-.42-.42-.76-.74l-.14-.14c-.74-.72-1.42-1.4-2.04-2.02l-.04-.04c-.28-.28-.54-.56-.86-.88a69.75 69.75 0 01-2.6-2.78c-.04-.04-.1-.1-.14-.16h-.02c-.9-.98-1.78-2-2.68-3.06 0-.02 0-.04-.02-.06-.14-.16-.38-.46-.76-.9-.62-.76-1.24-1.56-1.92-2.38l-.02-.02c-.22-.3-.46-.62-.6-.8l-.02-.02c-.76-1-1.48-1.98-2.2-2.98l-.02-.02c-9.64-13.28-16.3-34.76-18.16-55.44-1.88-20.66 1.34-40.5 8.54-50.26a5.07 5.07 0 00.48-5.32c-.86-1.74-2.62-2.82-4.56-2.84zm93.18 3.32c.28 2.8-.02 5.62.66 8.36 2.98 11.86 9.64 23.06 19.18 30.48 3.26 2.52 6.76 4.7 10.38 6.48.02.02.04.04.06.04 1.92.92 3.9 1.76 5.92 2.5l-.04-.02c1.56.58 3.32 1.18 5.1 1.62 4.62 1.14 9.08 1.74 13.4 1.98-3.04.62-5.58 1.66-9.46 1.54-3.04-.1-6.4-.48-10.06-1.2h-.02c-.24-.04-.86-.28-1.92-.6-.12-.04-.36-.12-.62-.2-.62-.22-1.12-.38-1.5-.54-.04-.02-.06-.02-.1-.04-12.64-4.74-23.58-14.86-28.86-27.56-2.14-5.16-3.22-10.56-3.16-15.86.02-2.38.58-4.68 1.04-6.98zM92.36 58.72c-1.3 8.66-1.28 17.54 1.34 26.08 5.4 17.8 16.68 33.34 30.94 44.72.3.26.6.5.8.68.04.02.08.06.12.08 1.28 1 2.62 2.02 4.02 3 .02.02.06.04.1.06.64.44 1.28.86 1.98 1.3v.02c.04.02.4.3 1.08.7.96.62 1.92 1.2 2.72 1.7.04.02.06.04.08.06.36.2.6.34.7.38.72.44 1.52.92 2.48 1.42v.02c.38.18.76.38 1.14.56.62.32 1.22.64 1.82.96.04.02.08.04.14.06 1.12.56 2.32 1.12 3.56 1.66.66.34.94.44 1.12.5 1.16.52 2.26.94 3.26 1.34.5.2.98.38 1.36.54l-.02-.02c1.06.4 2.1.74 3.08 1.06.3.12.72.24 1.18.38 1.42.48 2.88.92 4.36 1.3 19.2 5.06 37.5 2.46 52.96-4.8-9.4 8.42-23.04 15.76-43.84 16.22-6.2.14-13.02-.34-20.54-1.6-.02-.02-.04-.02-.06-.02-.62-.1-1.7-.5-3.26-1-.44-.12-.82-.26-1.22-.4-.88-.28-1.78-.6-2.66-.92l-.04-.02c-.22-.08-.66-.24-1.18-.42l-.12-.06c-.04-.02-.04-.02-.08-.02-.84-.34-1.72-.72-2.64-1.12h-.02c-.26-.12-.52-.24-.82-.34-1.2-.56-2.34-1.08-3.4-1.62l-.18-.06c-.52-.3-1.1-.6-1.72-.9l-.06-.04c-.04-.02-.06-.04-.1-.06-.24-.12-.5-.26-.5-.26-.12-.08-.24-.14-.34-.2-.74-.38-1.5-.82-2.22-1.26-.14-.08-.26-.14-.4-.22 0 0-.12-.06-.18-.08-.88-.54-1.72-1.06-2.58-1.62l-.06-.06c-.08-.04-.34-.22-.78-.5-.64-.42-1.16-.76-1.56-1.04-.12-.1-.26-.18-.4-.28 0 0-.02 0-.04-.02-1.16-.84-2.3-1.68-3.38-2.54a1.11 1.11 0 01-.16-.12c-.02-.02-.32-.26-.7-.56-1.14-.9-2.22-1.8-3.28-2.74l-.04-.04c-.04-.04-.1-.08-.14-.12-.02-.02-.06-.04-.08-.06l-.08-.08c-1-.9-1.98-1.82-2.96-2.78l-.06-.06c-.26-.26-.5-.5-.72-.74-.02 0-.02-.02-.04-.02-1.06-1.06-2.02-2.06-2.86-3.04-.16-.18-.32-.34-.5-.48-1.96-1.72-4.14-4.96-6.28-8.08-.02-.02-.02-.02-.02-.04a75.306 75.306 0 01-5.76-9.72v-.04c-8.58-16.94-9.72-37.44-2.26-54.58zM37.22 72.08c-1.14 8.94-1.54 18.42-.66 28.24 2 22.14 8.74 44.9 20.08 60.5.78 1.12 1.58 2.18 2.4 3.26.3.4.5.64.56.72.08.12.16.24.26.34.64.8 1.3 1.62 1.98 2.48l.16.16c.12.14.34.44.7.86.92 1.08 1.88 2.2 2.88 3.3.04.04.08.1.12.14.94 1.04 1.92 2.08 2.92 3.1.26.26.54.56.88.9l.02.02.02.02c.8.8 1.54 1.54 2.24 2.22l.14.14c.16.14.4.4.82.8.02.02.04.02.06.04 1.02.96 2.08 1.96 3.18 2.92.08.1.18.18.28.26.42.32.32.36-.32-.34.14.14.28.28.42.4 1 .9 2.02 1.78 3.14 2.68.4.32.72.58.96.78l.08.08c.86.7 1.68 1.32 2.44 1.92.06.06.12.1.16.14.34.22.66.48 1.02.74.04.06.08.1.14.14.9.64 1.78 1.3 2.74 1.98.2.14.5.38.88.66.02 0 .04.02.08.02.92.64 1.9 1.32 2.96 1.98.28.2.6.44 1.02.7.02.02.04.02.04.02 1.36.88 2.72 1.72 4.04 2.5.04.02.08.06.14.08.44.24.64.36.6.34.12.08.26.18.4.26.96.52 1.96 1.1 3.02 1.68l.02.02c.02 0 .04.02.08.02.66.38 1.26.68 1.76.94.78.42 1.62.86 2.5 1.28.02.02.08.04.08.06.04 0 .04 0 .06.02.3.14.64.34 1.18.56 1 .5 2.02.98 3.08 1.46l.24.12c.02 0 .36.14.62.26 1.28.56 2.64 1.14 4.06 1.7 0 .02.02.02.02.02.46.18.74.28.8.3.08.04.14.06.22.08 1.18.48 2.42.96 3.74 1.42.22.08.46.16.68.24 1.26.44 2.56.86 3.9 1.28.52.18.98.3 1.38.42 1.32.4 2.78.88 4.46 1.26 27.1 6.24 55.46 4.66 78.5-7.06-13.32 13.34-35.16 26.74-69.36 26.74-7.9 0-16.46-.76-25.76-2.48-.92-.18-2.1-.58-3.68-1.06-.08-.04-.16-.06-.24-.08-.02 0-.34-.1-.72-.22l-.16-.04c-1.28-.4-2.54-.82-3.82-1.26-.04-.02-.06-.02-.1-.04-.14-.04-.1-.02-.06-.02-.06-.02-.14-.06-.2-.08-1.22-.44-2.44-.9-3.58-1.34-.08-.04-.18-.06-.28-.1.04.02-.24-.1-.66-.26l-.08-.04c-1.24-.5-2.44-1-3.66-1.54-.24-.1-.56-.26-.6-.26-.02-.02-.04-.04-.06-.04-1.12-.5-2.16-.98-3.16-1.48h-.04c-.08-.06-.38-.2-.58-.3-.46-.26-.52-.26-.68-.32l-.08-.02c-.64-.34-1.28-.68-1.9-1.02a.81.81 0 00-.18-.1c-.6-.3-1.06-.54-1.42-.74a.152.152 0 00-.08-.04c-.92-.5-1.84-1.02-2.76-1.56l-.04-.02c-.4-.24-.78-.46-1.18-.66l-.1-.08c-1.2-.72-2.38-1.46-3.56-2.22-.34-.24-.68-.44-1.02-.66l-.02-.02h-.02c-.78-.54-1.54-1.06-2.36-1.6-.12-.1-.26-.2-.4-.3-.2-.12-.44-.3-.72-.5l-.06-.06a85.94 85.94 0 01-2.44-1.76l-.02-.02h-.02c-.38-.3-.76-.6-1.18-.92l-.02-.02c-.8-.6-1.54-1.16-2.22-1.72l-.02-.02c-.4-.32-.74-.58-1.02-.82 0-.02-.02-.02-.02-.02-.92-.78-1.82-1.56-2.72-2.32-.12-.12-.22-.2-.3-.24-.08-.1-.18-.18-.26-.26-.92-.78-1.86-1.68-2.84-2.6l-.02-.04c-.34-.32-.64-.58-.9-.84l-.06-.06c-.64-.6-1.3-1.3-2.04-2.04A.87.87 0 0158 196c-.28-.26-.52-.48-.76-.72-.9-.96-1.78-1.9-2.66-2.86l-.04-.04a.467.467 0 00-.14-.14c-.88-1-1.74-1.98-2.56-2.98a.87.87 0 01-.12-.14c-.16-.18-.38-.44-.62-.72l-.02-.02c0-.02-.02-.04-.04-.06-.62-.78-1.28-1.6-1.96-2.42-.24-.32-.46-.62-.56-.78-.06-.06-.1-.12-.14-.16-.66-.86-1.32-1.72-1.98-2.64l-.04-.06c-.18-.26-.3-.4-.24-.32l-.12-.18c-.04-.06-.08-.1-.12-.16-.02-.02-.04-.06-.06-.08h-.02c-.68-.96-1.36-1.98-2.08-3.06a.473.473 0 00-.12-.18c-.12-.18-.28-.44-.48-.76l-.06-.08c-.6-.98-1.14-1.78-1.5-2.4-.04-.08-.1-.18-.16-.26-.16-.24-.36-.6-.66-1.08l-.02-.04c-.42-.7-.86-1.44-1.32-2.22v-.04c-.04-.04-.04-.06-.08-.1-.2-.4-.38-.74-.52-1.02a3.01 3.01 0 00-.2-.34c-.22-.4-.3-.58-.12-.2-.08-.18-.16-.34-.24-.48-.18-.32-.36-.62-.48-.94l-.12-.24c-.4-.76-.72-1.36-.96-1.84-.02-.06-.04-.12-.06-.16-13.34-26.9-15.22-68.36.6-94zm77.04 66.7l.06.02c.08.12.06.08.16.24-.06-.1-.14-.18-.22-.26zm-59.64 53.76l.08.08c.06.06.04.04.1.12l.02.02v.02c.04.02.06.08.08.12-.16-.22-.22-.3-.28-.36zM75.5 210.8l.18.1c-.36-.26-.34-.28 0 .04a1.1 1.1 0 00-.18-.14z" fill="#fff" font-family="none" font-weight="none" font-size="none" text-anchor="none"/></svg>